<?xml version="1.0" standalone="no"?><!DOCTYPE svg PUBLIC "-//W3C//DTD SVG 1.1//EN" "http://www.w3.org/Graphics/SVG/1.1/DTD/svg11.dtd"><svg class="icon" width="64px" height="64.00px" viewBox="0 0 1024 1024" version="1.1" xmlns="http://www.w3.org/2000/svg"><path fill="#515151" d="M930.907044 204.725708 534.897926 204.725708c-24.035377 0-43.81772-18.228153-46.282966-41.611723-0.054237-1.108241-0.128942-2.209318-0.222067-3.306302-0.01842-0.540306-0.039911-1.080611-0.039911-1.626034l0 0.157589-0.090055 0c-4.680794-47.034223-44.368281-83.754542-92.624262-83.754542L93.093979 74.584696c-51.4038 0-93.090909 41.668005-93.090909 93.086072l0 688.659489c0 51.408857 41.685063 93.085048 93.090909 93.085048l837.813065 0c51.402776 0 93.089886-41.676192 93.089886-93.085048L1023.99693 297.812803C1023.99693 246.394736 982.311867 204.725708 930.907044 204.725708zM977.45301 856.330256c0 25.704428-20.844578 46.542013-46.544943 46.542013L93.093979 902.872269c-25.708552 0-46.544943-20.837584-46.544943-46.542013L46.549036 344.354815l930.903974 0L977.45301 856.330256zM46.549036 297.812803 46.549036 167.671791c0-25.700335 20.836391-46.543036 46.544943-46.543036l302.544687 0c24.050728 0 43.83921 18.247596 46.286036 41.647539 0.053214 1.089821 0.125872 2.174526 0.215926 3.254114 0.019444 0.545422 0.041957 1.090844 0.041957 1.641383l0.106428 0c4.754475 46.958498 44.407169 83.596953 92.607889 83.596953l396.011165 0c25.699342 0 46.54392 20.842701 46.54392 46.543036L46.549036 297.81178 46.549036 297.812803z" /></svg>