<?xml version="1.0" standalone="no"?><!DOCTYPE svg PUBLIC "-//W3C//DTD SVG 1.1//EN" "http://www.w3.org/Graphics/SVG/1.1/DTD/svg11.dtd"><svg t="1566462639380" class="icon" viewBox="0 0 1024 1024" version="1.1" xmlns="http://www.w3.org/2000/svg" p-id="3973" xmlns:xlink="http://www.w3.org/1999/xlink" width="64" height="64"><defs><style type="text/css"></style></defs><path d="M512 0c282.773333 0 512 229.226667 512 512S794.773333 1024 512 1024 0 794.773333 0 512 229.226667 0 512 0z" fill="#21ADF5" p-id="3974"></path><path d="M757.269333 611.882667c-3.776-53.546667-38.698667-98.432-58.816-121.6 2.794667-6.762667 9.6-45.866667-16.704-72.469334v-1.92c0-105.152-72.682667-180.864-163.84-181.205333-91.2 0.341333-163.882667 76.010667-163.882666 181.226667v1.898666c-26.282667 26.666667-19.477333 65.749333-16.682667 72.448-20.16 23.210667-55.04 68.053333-58.816 121.6-0.682667 14.08 1.429333 34.602667 8.106667 43.712 8.128 11.114667 30.485333-2.24 46.421333-37.738666 4.437333 16.448 14.698667 41.578667 37.888 73.429333-38.826667 9.130667-49.92 48.576-36.842667 70.144 9.216 15.189333 30.293333 27.669333 66.666667 27.669333 64.661333 0 93.226667-17.898667 105.962667-30.357333 2.602667-2.730667 6.336-4.032 11.093333-4.053333 4.778667 0 8.533333 1.344 11.136 4.053333 12.736 12.458667 41.301333 30.357333 105.962667 30.357333 36.352 0 57.450667-12.48 66.645333-27.669333 13.056-21.589333 1.984-61.013333-36.821333-70.144 23.210667-31.872 33.450667-57.002667 37.909333-73.429333 15.978667 35.498667 38.272 48.853333 46.421333 37.738666 6.677333-9.109333 8.789333-29.610667 8.106667-43.690666h0.085333z" fill="#FFFFFF" p-id="3975"></path></svg>