<?xml version="1.0" standalone="no"?><!DOCTYPE svg PUBLIC "-//W3C//DTD SVG 1.1//EN" "http://www.w3.org/Graphics/SVG/1.1/DTD/svg11.dtd"><svg t="1566462429057" class="icon" viewBox="0 0 1260 1024" version="1.1" xmlns="http://www.w3.org/2000/svg" p-id="2085" xmlns:xlink="http://www.w3.org/1999/xlink" width="78.75" height="64"><defs><style type="text/css"></style></defs><path d="M181.169231 259.938462a259.938462 129.969231 0 1 0 519.876923 0 259.938462 129.969231 0 1 0-519.876923 0Z" fill="#FFFFFF" p-id="2086"></path><path d="M620.307692 569.107692a259.938462 129.969231 0 1 0 519.876923 0 259.938462 129.969231 0 1 0-519.876923 0Z" fill="#FFFFFF" p-id="2087"></path><path d="M1126.4 911.753846c82.707692-59.076923 133.907692-145.723077 133.907692-242.215384 0-175.261538-169.353846-317.046154-380.061538-317.046154s-380.061538 141.784615-380.061539 317.046154 169.353846 317.046154 380.061539 317.046153c45.292308 0 88.615385-5.907692 129.969231-19.692307 7.876923-1.969231 15.753846-1.969231 21.661538 1.96923l82.707692 47.261539c17.723077 9.846154 29.538462 1.969231 23.63077-17.723077l-17.723077-68.923077c-3.938462-3.938462 0-13.784615 5.907692-17.723077z m-374.153846-291.446154c-27.569231 0-51.2-23.630769-51.2-51.2s23.630769-51.2 51.2-51.2 51.2 23.630769 51.2 51.2c1.969231 27.569231-21.661538 51.2-51.2 51.2z m252.061538 0c-27.569231 0-51.2-23.630769-51.2-51.2s23.630769-51.2 51.2-51.2 51.2 23.630769 51.2 51.2c1.969231 27.569231-21.661538 51.2-51.2 51.2z" fill="#39CE1A" p-id="2088"></path><path d="M884.184615 322.953846h23.63077c-33.476923-181.169231-222.523077-320.984615-450.953847-320.984615-252.061538 0-456.861538 169.353846-456.861538 380.061538 0 116.184615 61.046154 218.584615 159.507692 289.476923 9.846154 5.907692 13.784615 17.723077 9.846154 29.538462l-21.661538 80.738461c-5.907692 23.630769 5.907692 33.476923 27.56923 21.661539l98.461539-57.107692c7.876923-5.907692 19.692308-5.907692 29.538461-3.938462 47.261538 13.784615 100.430769 21.661538 153.6 21.661538h23.63077c-9.846154-29.538462-15.753846-61.046154-15.753846-94.523076 1.969231-192.984615 189.046154-346.584615 419.446153-346.584616z m-275.692307-124.061538c33.476923 0 61.046154 27.569231 61.046154 61.046154s-27.569231 61.046154-61.046154 61.046153-61.046154-27.569231-61.046154-61.046153 27.569231-61.046154 61.046154-61.046154z m-305.23077 122.092307c-33.476923 0-61.046154-27.569231-61.046153-61.046153s27.569231-61.046154 61.046153-61.046154 61.046154 27.569231 61.046154 61.046154-27.569231 61.046154-61.046154 61.046153z" fill="#39CE1A" p-id="2089"></path></svg>